<?xml version="1.0" encoding="UTF-8"?><svg id="uuid-51c984a0-e532-4d38-bc91-8dddc8281fc3" xmlns="http://www.w3.org/2000/svg" viewBox="0 0 167.56 158.12"><path id="uuid-5802172b-9788-4b72-8656-2af8d4716365" d="m83.79,110c-18.94,0-34.34-15.39-34.34-34.33s15.41-34.33,34.34-34.33,34.32,15.4,34.32,34.33-15.39,34.33-34.32,34.33Zm0-66.3c-17.64,0-31.99,14.35-31.99,31.97s14.35,31.98,31.99,31.98,31.98-14.34,31.98-31.98-14.35-31.97-31.98-31.97Z" style="fill:#fff;"/><path id="uuid-7f3503f1-9ddd-40d5-92b2-fe66874f07b9" d="m25.06,17.22c-1.75,1.75-1.75,4.59,0,6.35.45.45.99.79,1.55,1.01.25-1.21.85-2.37,1.79-3.31,1.16-1.16,2.66-1.8,4.19-1.92-.19-.78-.59-1.52-1.21-2.13-1.74-1.75-4.59-1.75-6.33,0Z" style="fill:none;"/><path id="uuid-7d09afe6-c9fd-4d9b-9ceb-49ff332e22a6" d="m130.55,45.9l18.73,15.98,8.06-8.06-19.35-18.79-2.55-2.47-.4-.4c.3.12.61.22.92.29.97.28,1.97.43,2.98.46,3.35.12,6.73-1.11,9.27-3.67,4.91-4.89,4.91-12.84,0-17.73-4.89-4.91-12.84-4.91-17.73,0-2.65,2.65-3.86,6.18-3.65,9.65.09,1.31.38,2.62.88,3.87l-2.96-2.86L105.01,3.04l-8.52,8.26,15.62,16.71c3.91,2.34,7.56,5.17,10.87,8.47,2.89,2.9,5.42,6.05,7.57,9.42Zm2.19-26.36c.19-1.41.81-2.77,1.89-3.86,2.6-2.6,6.82-2.6,9.43,0,2.59,2.59,2.59,6.81,0,9.4-.86.87-1.91,1.44-3.01,1.73-.72.19-1.48.26-2.23.2.17-.72.16-1.47-.02-2.19-.2-.73-.58-1.44-1.17-2.02-.74-.74-1.66-1.16-2.61-1.28-.72-.09-1.47,0-2.16.27-.16-.75-.2-1.51-.1-2.26Z" style="fill:none;"/><path id="uuid-0400260c-99d8-4f0e-bfc8-d08ef5502e4b" d="m55.48,27.99l15.6-16.69-8.52-8.26-19.73,19.15-2.96,2.86c.5-1.25.79-2.56.86-3.87.22-3.47-1-7-3.64-9.65-4.91-4.91-12.85-4.91-17.74,0-4.9,4.89-4.9,12.84,0,17.73,2.55,2.55,5.92,3.78,9.28,3.67,1-.03,2.01-.18,2.97-.46.32-.08.62-.18.93-.29l-.4.4-2.55,2.47-19.35,18.79,8.07,8.06,18.68-15.96c2.15-3.38,4.7-6.54,7.6-9.44,3.31-3.31,6.97-6.15,10.9-8.49Zm-20.75-6.18c-.7-.27-1.44-.36-2.16-.27-.97.11-1.89.54-2.62,1.28-.58.57-.98,1.28-1.17,2.02-.18.72-.19,1.47-.03,2.19-.73.07-1.5,0-2.23-.2-1.1-.29-2.13-.86-3-1.72-2.59-2.59-2.59-6.81,0-9.4,2.6-2.6,6.81-2.6,9.42,0,1.09,1.08,1.71,2.45,1.89,3.86.09.75.07,1.51-.1,2.26Z" style="fill:none;"/><path id="uuid-79b75b75-ddaf-41c1-9659-b42643ead8fc" d="m140.96,24.58c.57-.22,1.1-.56,1.55-1.01,1.76-1.75,1.76-4.6,0-6.35-1.74-1.75-4.58-1.75-6.33,0-.61.61-1,1.35-1.19,2.13,1.52.12,3.02.76,4.18,1.92.94.94,1.53,2.09,1.79,3.31Z" style="fill:none;"/><path id="uuid-8b92f855-9a66-42c2-baa3-33f10723d02e" d="m137.04,75.68c0-10.45-3.02-20.19-8.23-28.41-4.52-7.14-10.7-13.14-17.98-17.45-7.92-4.69-17.18-7.4-27.03-7.4s-19.1,2.69-27.02,7.38c-7.31,4.32-13.49,10.33-18.02,17.49-5.21,8.22-8.22,17.95-8.22,28.39,0,29.36,23.89,53.26,53.26,53.26s53.25-23.89,53.25-53.26Z" style="fill:none;"/><path id="uuid-96c47283-55ea-46c8-b586-7bfa9741dcae" d="m156.93,98.34l7.49-3.77c-1.14-1.62-3.05-4.08-5.62-6.53-2.55-2.39-5.23-4.31-7.99-5.68-2.45-1.22-4.97-2.02-7.52-2.37,1.7,7.79.69,15.48-.56,20.82-.49,2.12-1.06,4.03-1.6,5.63l6.85-3.49.2,3.49c-.14.98-.8,4.54-3.9,7.64-.72.71-1.5,1.35-2.36,1.91l-.08.06-.08.05c-3.45,1.82-5.09.97-5.79.21l-7.64-7.62c-1.61,2.17-3.4,4.24-5.34,6.18-2.17,2.16-4.47,4.12-6.91,5.87l6.44,6.47c.46.37,1.52,1.41,1.79,2.9.17.93.52,3.11-1.99,4.87-2.5,1.75-6.36,4.88-14.16,5.35,1.43-2.35,4.38-6.99,4.38-6.99-2.01.38-16.99,2.89-25.63,1.32,1.2,8.34,8.93,17.05,12.5,19.92l4.62-7.52s9.55,3.1,22.69-2.83h.01s.02-.01.02-.01c9.2-4.78,16.45-5.21,20.36-4.93-.3-4.13-.76-9.44,6.52-20.78,4-6.23,4.41-10.74,4.35-13.76-.05-2.1-1.04-6.41-1.04-6.41Z" style="fill:none;"/><path id="uuid-bd528177-d7ee-44c3-88c3-a8a209d80f73" d="m39.27,108.72l-7.57,7.6c-.7.76-2.34,1.61-5.79-.21l-.09-.05-.09-.05c-.85-.56-1.64-1.2-2.35-1.91-3.09-3.1-3.77-6.67-3.89-7.65l.19-3.49,6.85,3.49c-.53-1.6-1.09-3.51-1.59-5.63-1.25-5.34-2.26-13.04-.56-20.82-2.55.35-5.07,1.15-7.52,2.37-2.75,1.37-5.44,3.29-7.97,5.69-2.58,2.44-4.49,4.89-5.64,6.52l7.5,3.76s-.99,4.3-1.04,6.41c-.05,3.02.35,7.53,4.35,13.76,7.29,11.34,6.81,16.64,6.52,20.78,3.91-.27,11.16.16,20.38,4.94h0s.02,0,.02,0c13.14,5.93,22.7,2.84,22.7,2.84l4.62,7.51c3.54-2.87,11.3-11.58,12.48-19.92-8.63,1.58-23.61-.93-25.62-1.31,0,0,2.96,4.64,4.38,6.99-7.79-.47-11.65-3.6-14.15-5.35-2.51-1.75-2.16-3.94-1.99-4.87.27-1.5,1.33-2.53,1.78-2.9l6.43-6.41c-2.46-1.75-4.81-3.75-7-5.94-1.94-1.94-3.71-4-5.31-6.16Z" style="fill:none;"/><path id="uuid-f3285ec2-4407-4be7-a7c7-bf5bb5a7c654" d="m167.56,95.42s-10.12-17.68-27.15-17.81c5.06,16.07-3.4,33.36-3.4,33.36l8.97-4.57c-.17.99-.82,3.72-3.24,6.15-.56.57-1.23,1.11-2.01,1.62-2.57,1.37-3.2.64-3.2.64l-7.9-7.95c6.24-9.12,9.59-19.89,9.59-31.2,0-8.56-1.92-16.82-5.57-24.29l14.22,12.16,1.53,1.3,1.43-1.42,8.06-8.06,1.57-1.57-1.59-1.54-17.79-17.27c3.18-.36,6.25-1.77,8.69-4.2,5.73-5.73,5.73-15.07,0-20.81-5.74-5.74-15.08-5.74-20.82,0-2.54,2.55-3.94,5.79-4.25,9.12L106.52,1.47l-1.51-1.47-1.51,1.47-8.52,8.25-1.53,1.49,1.46,1.56,11.43,12.23c-7.01-3.12-14.65-4.76-22.55-4.76s-15.54,1.64-22.54,4.76l11.42-12.22,1.46-1.56-1.53-1.49-8.51-8.26L62.56,0l-1.52,1.47-18.15,17.62c-.29-3.33-1.71-6.58-4.25-9.12-5.74-5.73-15.07-5.73-20.81,0-5.75,5.74-5.75,15.08,0,20.81,2.42,2.43,5.5,3.84,8.68,4.2l-17.8,17.27-1.58,1.54,1.56,1.57,8.07,8.06,1.42,1.43,1.52-1.3,14.21-12.14c-3.65,7.47-5.57,15.71-5.57,24.27,0,11.3,3.36,22.07,9.6,31.2l-7.91,7.94s-.63.73-3.2-.64c-.77-.5-1.44-1.05-2.02-1.62-2.42-2.42-3.06-5.15-3.25-6.14l8.98,4.57s-8.45-17.29-3.4-33.37c-17.04.13-27.16,17.81-27.16,17.81l7.91,4.02c-.82,2.03-3.13,9.75,4.26,20.32,8.66,12.37,5.71,22.09,5.71,22.09,0,0,8.81-2.52,21.97,4.3,10.71,5.78,21.4,3.85,22.66,3.6l5.19,8.38s15.31-10.02,16.08-26.58c-12.73,3.33-33.63-1.74-33.63-1.74l4.37,7.06c-1.35-.32-5.83-1.51-7.72-3.41-.16-.17-.3-.34-.42-.51-1.8-2.56.25-3.97.25-3.97l6.86-6.86c8.94,5.85,19.37,8.99,30.3,8.99s21.35-3.15,30.28-8.99l6.86,6.86s2.05,1.41.25,3.97c-.11.17-.26.34-.42.51-1.9,1.89-6.36,3.08-7.73,3.41l4.38-7.06s-20.9,5.07-33.62,1.74c.77,16.56,16.07,26.58,16.07,26.58l5.19-8.38c1.25.25,11.95,2.18,22.67-3.6,13.16-6.82,21.97-4.3,21.97-4.3,0,0-2.95-9.73,5.7-22.09,7.39-10.57,5.09-18.29,4.26-20.32l7.92-4.02ZM96.49,11.3l8.52-8.26,19.73,19.15,2.96,2.86c-.51-1.25-.79-2.56-.88-3.87-.21-3.47,1-7,3.65-9.65,4.9-4.91,12.84-4.91,17.73,0,4.91,4.89,4.91,12.84,0,17.73-2.55,2.55-5.93,3.78-9.27,3.67-1.01-.03-2-.18-2.98-.46-.31-.08-.62-.18-.92-.29l.4.4,2.55,2.47,19.35,18.79-8.06,8.06-18.73-15.98c-2.15-3.37-4.67-6.52-7.57-9.42-3.31-3.31-6.96-6.14-10.87-8.47l-15.62-16.71ZM18.31,61.89l-8.07-8.06,19.35-18.79,2.55-2.47.4-.4c-.3.12-.61.22-.93.29-.96.28-1.97.43-2.97.46-3.37.12-6.73-1.11-9.28-3.67-4.9-4.89-4.9-12.84,0-17.73,4.9-4.91,12.84-4.91,17.75,0,2.63,2.65,3.85,6.18,3.63,9.65-.08,1.31-.36,2.62-.86,3.87l2.95-2.86L62.56,3.04l8.52,8.26-15.6,16.69c-3.93,2.34-7.59,5.18-10.9,8.49-2.89,2.9-5.44,6.06-7.59,9.44l-18.69,15.96Zm26.85,65.33c-.45.37-1.51,1.41-1.78,2.9-.17.93-.52,3.12,1.99,4.87,2.5,1.75,6.36,4.87,14.15,5.34-1.42-2.35-4.38-6.99-4.38-6.99,2.01.38,16.99,2.89,25.62,1.31-1.18,8.34-8.94,17.05-12.48,19.92l-4.62-7.51s-9.56,3.09-22.7-2.84h-.02s0-.01,0-.01c-9.21-4.77-16.46-5.21-20.38-4.93.29-4.13.77-9.44-6.52-20.78-4-6.22-4.4-10.74-4.35-13.76.05-2.1,1.04-6.41,1.04-6.41l-7.5-3.77c1.16-1.62,3.06-4.08,5.64-6.53,2.54-2.39,5.22-4.31,7.98-5.68,2.45-1.22,4.97-2.02,7.52-2.37-1.7,7.79-.69,15.48.56,20.82.5,2.12,1.06,4.03,1.59,5.63l-6.84-3.49-.19,3.49c.12.98.8,4.54,3.89,7.64.71.71,1.51,1.35,2.35,1.91l.09.06.09.05c3.45,1.82,5.1.97,5.79.21l7.57-7.6c1.6,2.17,3.37,4.22,5.31,6.16,2.19,2.18,4.54,4.17,7,5.94l-6.43,6.4Zm-14.64-51.54c0-10.43,3.01-20.17,8.22-28.39,4.53-7.16,10.72-13.18,18.02-17.49,7.93-4.69,17.16-7.38,27.02-7.38s19.1,2.71,27.03,7.4c7.29,4.31,13.46,10.31,17.98,17.45,5.21,8.22,8.23,17.96,8.23,28.41,0,29.37-23.89,53.26-53.25,53.26s-53.26-23.89-53.26-53.26Zm123.1,42.83c-7.28,11.34-6.82,16.64-6.52,20.78-3.91-.27-11.16.16-20.36,4.94h-.02s-.01,0-.01,0c-13.14,5.93-22.69,2.84-22.69,2.84l-4.62,7.51c-3.57-2.87-11.3-11.58-12.5-19.92,8.64,1.58,23.62-.93,25.63-1.31,0,0-2.95,4.64-4.38,6.99,7.8-.46,11.66-3.59,14.16-5.34,2.51-1.75,2.15-3.94,1.99-4.87-.27-1.5-1.33-2.54-1.79-2.9l-6.44-6.47c2.44-1.75,4.74-3.71,6.91-5.87,1.94-1.94,3.73-4.01,5.33-6.18l7.65,7.62c.7.76,2.35,1.61,5.79-.21l.08-.05.08-.05c.87-.56,1.64-1.2,2.36-1.91,3.09-3.1,3.76-6.67,3.9-7.65l-.2-3.48-6.85,3.48c.54-1.61,1.1-3.51,1.6-5.63,1.26-5.34,2.25-13.04.56-20.82,2.54.35,5.07,1.16,7.52,2.37,2.76,1.37,5.44,3.28,7.99,5.69,2.57,2.44,4.48,4.9,5.62,6.52l-7.49,3.76s1,4.3,1.04,6.42c.06,3.01-.35,7.53-4.35,13.75Z" style="fill:#fff;"/><path id="uuid-01ed7566-1d48-4719-a3b0-d2d0004fdd02" d="m32.94,15.69c-2.6-2.6-6.82-2.6-9.42,0-2.59,2.59-2.59,6.81,0,9.4.87.87,1.9,1.44,3,1.73.73.19,1.5.26,2.23.2-.16-.72-.15-1.47.03-2.19.2-.73.59-1.44,1.17-2.02.73-.74,1.65-1.16,2.62-1.28.72-.09,1.47,0,2.16.27.17-.75.19-1.51.1-2.25-.18-1.41-.8-2.78-1.89-3.86Zm-4.53,5.58c-.95.94-1.54,2.09-1.79,3.31-.57-.22-1.1-.56-1.55-1.01-1.75-1.75-1.75-4.6,0-6.35,1.74-1.75,4.59-1.75,6.33,0,.62.61,1.02,1.35,1.21,2.13-1.53.12-3.03.76-4.19,1.92h0Z" style="fill:#fff;"/><path id="uuid-b65a8a16-54e5-4db7-9383-a220d5273d43" d="m135.01,21.53c.95.11,1.88.54,2.61,1.28.59.57.97,1.28,1.17,2.02.18.72.19,1.47.02,2.19.75.07,1.51,0,2.23-.2,1.1-.29,2.15-.86,3.01-1.72,2.59-2.59,2.59-6.81,0-9.4-2.6-2.6-6.83-2.6-9.43,0-1.09,1.08-1.71,2.45-1.89,3.86-.1.75-.05,1.51.1,2.26.7-.27,1.44-.36,2.16-.27Zm1.17-4.32c1.75-1.75,4.59-1.75,6.33,0,1.76,1.75,1.76,4.59,0,6.35-.45.45-.98.8-1.55,1.01-.26-1.21-.85-2.37-1.79-3.31-1.16-1.16-2.66-1.8-4.18-1.92.19-.78.58-1.52,1.19-2.13Z" style="fill:#fff;"/><path id="uuid-70d582c3-d104-49f9-836a-6e5b4665a32a" d="m95.22,71.89v24.6c1.14-.38,2.25-.8,3.26-1.33v-23.27h-3.26Z" style="fill:none;"/><path id="uuid-110bef9c-d986-4129-aea1-15b714479afc" d="m101.74,92.47c1.63-2.06,2.55-4.91,2.86-8.82.21-2.64-.17-4.58-.57-6.64-.3-1.55-.61-3.15-.7-5.12h-1.59v20.58h0Z" style="fill:none;"/><path id="uuid-f345e0b3-13d4-49c3-ab45-cb401361dd7a" d="m88.68,71.89v26.74c1.07-.44,2.16-.81,3.27-1.13v-25.6h-3.27Z" style="fill:none;"/><path id="uuid-e799bd8f-e052-49a6-95ef-6b0747039b66" d="m62.96,83.65c.31,3.92,1.23,6.76,2.85,8.82v-20.58h-1.58c-.09,1.97-.4,3.57-.7,5.12-.4,2.06-.79,4-.58,6.64Z" style="fill:none;"/><path id="uuid-997a428e-a998-4aaf-97f6-ce45ee8b106e" d="m69.09,71.89v23.27c1.01.54,2.12.95,3.26,1.33v-24.6h-3.26Z" style="fill:none;"/><path id="uuid-42fa76d1-284d-4b98-b7dc-0224d634916b" d="m75.62,71.89v25.6c1.1.33,2.19.69,3.26,1.14v-26.74h-3.26Z" style="fill:none;"/><path id="uuid-8bb826e3-40b0-45ac-9263-74a1deaef8a3" d="m82.15,71.89v28.57c.57.42,1.12.89,1.64,1.45.51-.55,1.06-1.03,1.64-1.45v-28.57h-3.28Z" style="fill:none;"/><path id="uuid-59cd2840-c032-4bbd-89d5-e254fa0215c2" d="m72.34,71.89v24.6c.7.23,1.42.44,2.14.66.38.12.75.22,1.13.35v-25.6h-3.27Z" style="fill:#fff;"/><path id="uuid-87961d46-5472-457b-9259-380fc63291fe" d="m65.81,71.89v20.58c.34.42.72.82,1.11,1.19.67.59,1.39,1.07,2.16,1.5v-23.27h-3.27Z" style="fill:#fff;"/><path id="uuid-f29ccf05-fa6c-4344-ac0b-daaac936aaeb" d="m78.88,71.89v26.74c1.13.48,2.23,1.06,3.26,1.82v-28.57h-3.26Z" style="fill:#fff;"/><path id="uuid-986e4e99-86f6-449a-a290-14977ba1d46a" d="m98.47,71.89v23.27c.78-.43,1.5-.9,2.16-1.5.4-.37.78-.77,1.11-1.19v-20.58h-3.27Z" style="fill:#fff;"/><path id="uuid-3534c556-98df-475f-91a4-16c8cea85b29" d="m91.95,71.89v25.6c.38-.13.76-.23,1.12-.35.73-.21,1.45-.43,2.14-.66v-24.6h-3.27Z" style="fill:#fff;"/><path id="uuid-c050959b-4360-4336-9a49-978af1a33e74" d="m85.43,71.89v28.57c1.02-.77,2.12-1.34,3.25-1.83v-26.74h-3.25Z" style="fill:#fff;"/><path id="uuid-8609df38-d0ff-4317-ab9b-5212fe884af8" d="m103.33,71.89h-39.1c-.09,1.97-.4,3.57-.7,5.12-.4,2.06-.79,4-.58,6.64.31,3.92,1.23,6.76,2.85,8.82.34.42.72.83,1.11,1.19.67.59,1.39,1.07,2.16,1.5,1.01.54,2.12.95,3.26,1.33.7.23,1.42.44,2.14.66.38.12.75.22,1.13.35,1.1.33,2.19.69,3.26,1.14,1.13.48,2.23,1.06,3.26,1.82.57.42,1.12.9,1.64,1.45.51-.55,1.06-1.03,1.64-1.45,1.02-.77,2.12-1.34,3.25-1.83,1.07-.44,2.16-.81,3.27-1.13.38-.13.76-.23,1.12-.35.73-.21,1.45-.43,2.14-.66,1.14-.38,2.25-.8,3.26-1.33.78-.43,1.51-.9,2.16-1.5.4-.37.78-.77,1.11-1.19,1.63-2.06,2.55-4.91,2.86-8.82.21-2.64-.16-4.58-.57-6.64-.3-1.55-.61-3.15-.7-5.12Z" style="fill:none;"/><path id="uuid-693f071c-d430-42ea-82ba-753a2c407c2c" d="m104.44,70.69c0-8.23,2.9-14.35,2.9-14.35h-47.12s2.91,6.12,2.91,14.35c0,.41,0,.81-.03,1.2-.23,4.51-1.64,7.08-1.28,11.84.43,5.25,1.92,8.4,3.99,10.43.99.97,2.09,1.68,3.27,2.26,1.04.5,2.15.9,3.26,1.26,1.08.35,2.17.66,3.27.99,1.12.34,2.2.73,3.26,1.2,1.15.52,2.26,1.17,3.26,2.04.58.49,1.12,1.07,1.63,1.74v.02s0-.02,0-.02c.51-.67,1.06-1.25,1.64-1.74.99-.86,2.1-1.51,3.25-2.04,1.05-.47,2.15-.86,3.27-1.2,1.08-.34,2.19-.65,3.27-.99,1.11-.36,2.22-.75,3.26-1.26,1.19-.58,2.29-1.29,3.27-2.26,2.08-2.03,3.57-5.17,4-10.43.37-4.76-1.05-7.33-1.27-11.84-.02-.39-.03-.79-.03-1.2Zm.17,12.96c-.31,3.92-1.23,6.76-2.86,8.82-.33.42-.71.83-1.11,1.19-.66.59-1.38,1.07-2.16,1.5-1.01.54-2.12.95-3.26,1.33-.69.23-1.42.44-2.14.66-.37.12-.75.22-1.12.35-1.1.33-2.19.69-3.27,1.13-1.13.49-2.23,1.06-3.25,1.83-.59.42-1.13.9-1.64,1.45-.52-.55-1.07-1.03-1.64-1.45-1.03-.77-2.13-1.34-3.26-1.82-1.07-.45-2.16-.81-3.26-1.14-.39-.13-.76-.23-1.13-.35-.72-.21-1.44-.43-2.14-.66-1.14-.38-2.25-.8-3.26-1.33-.77-.43-1.49-.9-2.16-1.5-.39-.37-.77-.77-1.11-1.19-1.62-2.06-2.54-4.91-2.85-8.82-.21-2.64.17-4.58.58-6.64.3-1.55.61-3.15.7-5.12h39.1c.08,1.97.4,3.57.7,5.12.41,2.06.78,4,.57,6.64Z" style="fill:#fff;"/><path id="uuid-0b59f775-6e82-43f1-a28b-8954602ee74f" d="m57.26,115.79l2.9-4.05c.27-.36.5-.77.48-1.21-.03-.59-.44-1.15-.99-1.55-1.43-1.02-2.31-.18-2.81.49l-2.88,3.98-2.18-1.57,2.84-3.95c.54-.75,1.25-1.49,2.12-1.63,1.36-.25,2.94.64,3.95,1.37,3.83,2.76,2.41,4.77,1.61,5.88l-2.8,3.87-2.26-1.64Z" style="fill:#fff;"/><path id="uuid-67b8d4e2-6438-4db2-9e7f-a75b624be225" d="m49.68,109.91l-2.42-2.95,2.69-6.58-4.81,4-1.55-1.87,6.48-5.33,2.38,2.88-2.83,6.8,5.02-4.16,1.55,1.89-6.49,5.33Z" style="fill:#fff;"/><path id="uuid-fb7854c9-ccb3-4018-bf36-c261fafcee57" d="m42.41,100.26l-1.38-2.48,7.34-4.09,1.38,2.49-7.34,4.07Z" style="fill:#fff;"/><path id="uuid-df498e39-ebd7-4227-b958-3ab66610d854" d="m40.69,93.07l1.06,2.86-1.56.58-3.12-8.4,1.56-.58,1.08,2.93,6.3-2.35.98,2.62-6.3,2.34Z" style="fill:#fff;"/><path id="uuid-535cff50-8d21-4036-956e-4a5f97da28e7" d="m36.92,87.18l-1.25-7.39,1.58-.27.8,4.7,1.71-.3-.75-4.41,1.58-.27.75,4.43,1.76-.31-.81-4.8,1.61-.27,1.28,7.49-8.27,1.41Z" style="fill:#fff;"/><path id="uuid-095567bd-1012-4c24-ba7c-609ba71991c1" d="m35.41,77.14l.28-4.22c.07-1.18.28-2.75.93-3.75.95-1.42,2.35-1.74,3.6-1.66,1.86.12,3.18.91,3.71,2.97.26,1.04.18,2.27.14,2.95l-.28,4.24-8.38-.54Zm6.94-2.39l.08-1.19c.12-1.83-.46-3.05-2.42-3.18-2.55-.17-2.69,2.1-2.74,2.95l-.09,1.08,5.16.34Z" style="fill:#fff;"/><path id="uuid-c6c16ac5-d297-4317-a30f-58c1d40edcd6" d="m43.63,61.69c.32.11,1.24.42,1.83-1.1.08-.22.53-1.38-.36-1.73-.37-.15-.69-.06-1.07.5l-1.39,2.08c-.39.6-1.41,2.12-3.04,1.47-1.27-.49-2.01-2.09-.92-4.87,1.42-3.63,3.14-3.14,3.97-2.83l-1.03,2.62c-.24-.1-1.08-.43-1.56.81-.29.75-.12,1.36.35,1.54.57.23.93-.29,1.16-.62l1.06-1.6c.75-1.13,1.66-2.48,3.32-1.83,1.74.69,1.83,2.77.92,5.11-.38.97-1.12,2.47-2.25,3.01-.9.44-1.68.15-2.02.03l1.01-2.58Z" style="fill:#fff;"/><path id="uuid-d8a948c5-947e-4657-8924-3f4cddf960a9" d="m43.67,51.98l-1.61,2.57-1.41-.88,4.75-7.58,1.41.89-1.65,2.63,5.69,3.58-1.49,2.37-5.69-3.58Z" style="fill:#fff;"/><path id="uuid-5d6a28d4-1db6-4ba2-8f3c-a2759b0420e7" d="m48.56,42.63l2.4-2.39,8.72,3.16-2.21,2.21-1.69-.7-2.84,2.83.72,1.67-1.96,1.96-3.14-8.74h0Zm5.67,1.63l-3.41-1.59v.03s1.49,3.48,1.49,3.48l1.92-1.92Z" style="fill:#fff;"/><path id="uuid-560ee922-28c5-4b81-a5e2-8eaef8cb3edf" d="m57.92,36.86l-2.58,1.6-.88-1.4,7.59-4.74.88,1.41-2.64,1.66,3.57,5.7-2.37,1.48-3.57-5.71Z" style="fill:#fff;"/><path id="uuid-aab239fc-7f24-408b-b4d0-22f27fc4f171" d="m63.69,31.64l7.04-2.59.55,1.5-4.46,1.65.6,1.64,4.21-1.55.56,1.51-4.2,1.55.62,1.68,4.57-1.69.56,1.53-7.15,2.63-2.89-7.85Z" style="fill:#fff;"/><path id="uuid-7beb188f-bfe6-4c4d-b77e-3751e6b477d3" d="m76.23,33.74c.06.35.22,1.29,1.85,1.06.24-.03,1.47-.21,1.33-1.16-.05-.4-.27-.62-.95-.68l-2.51-.18c-.71-.06-2.53-.19-2.78-1.93-.2-1.35.84-2.77,3.79-3.2,3.86-.54,4.27,1.2,4.42,2.08l-2.79.4c-.03-.25-.15-1.16-1.47-.96-.8.11-1.24.56-1.17,1.05.09.62.72.67,1.13.72l1.9.13c1.36.11,2.97.23,3.22,1.99.26,1.85-1.51,2.95-4,3.3-1.02.15-2.7.24-3.72-.48-.82-.56-.95-1.37-1.02-1.73l2.76-.4Z" style="fill:#fff;"/><path id="uuid-72b3e239-3217-4ec7-b927-db37ccfbf31f" d="m93.3,30.96c.02-.86-.63-1.28-1.4-1.42-1.65-.28-2.37.91-2.63,2.42-.08.51-.43,2.59,1.69,2.95,1.44.25,1.74-.62,1.85-.92l2.85.48c-.46,2.58-3.63,2.27-4.92,2.05-.95-.18-2.62-.59-3.54-1.74-.91-1.14-.88-2.49-.74-3.35.2-1.14.7-2.22,1.78-2.95,1.17-.79,2.51-.82,3.95-.58,1.59.27,2.76.8,3.42,1.62.66.85.55,1.59.5,1.9l-2.81-.48Z" style="fill:#fff;"/><path id="uuid-84aca593-660a-4b0d-9ddb-1837aac936f5" d="m99.62,30.86c1.58-.46,3.37.24,4.03.55,3.64,1.63,3.63,4.27,2.79,6.13-1.38,3.05-4.37,2.83-6.54,1.85-2.42-1.09-4.19-3.23-2.9-6.07.24-.51,1.01-2,2.61-2.46h0Zm1.01,6.99c1.81.81,2.75-.45,3.21-1.51.5-1.07.42-1.74.29-2.21-.18-.58-.7-.98-1.26-1.23-1.66-.75-2.66.25-3.25,1.57-.55,1.22-.67,2.62,1.01,3.38Z" style="fill:#fff;"/><path id="uuid-31b09b5e-dd37-48e6-8c3a-e1c97a1aeee2" d="m113.08,37.26l2.6,2.14-2.28,8.99-2.42-1.98.55-1.74-3.09-2.54-1.59.88-2.14-1.75,8.37-3.99Zm-1.07,5.81l1.24-3.55v-.03s-3.33,1.85-3.33,1.85l2.1,1.73Z" style="fill:#fff;"/><path id="uuid-20729ad1-a98a-429f-b4e9-7d6d3d59c87f" d="m117.23,49.34c-.26.21-1.03.8-.07,2.12.14.19.87,1.21,1.64.64.32-.23.43-.54.16-1.17l-.99-2.3c-.29-.65-1.02-2.33.41-3.35,1.1-.8,2.85-.55,4.6,1.87,2.28,3.16.93,4.34.22,4.88l-1.64-2.28c.2-.15.95-.67.17-1.74-.47-.65-1.08-.84-1.49-.55-.5.36-.26.94-.1,1.31l.78,1.76c.53,1.25,1.17,2.73-.27,3.77-1.52,1.1-3.31.03-4.78-1.99-.61-.84-1.47-2.28-1.31-3.52.11-.99.77-1.48,1.07-1.71l1.63,2.26Z" style="fill:#fff;"/><path id="uuid-18ea48b0-491a-42de-8836-231624b88f2a" d="m125.82,55.57l-1.22-2.79,1.52-.67,3.58,8.2-1.53.67-1.23-2.85-6.18,2.69-1.11-2.55,6.18-2.7Z" style="fill:#fff;"/><path id="uuid-cc42dac9-7842-4ca3-90e0-135fc238081a" d="m129.3,71.37c.85-.27.97-1.11.88-1.86-.27-1.88-1.74-2.38-3.14-2.19-1.94.27-2.59,1.65-2.37,3.31.08.51.21,1,.36,1.5l1.6-.22-.27-2.09,1.58-.22.63,4.66-4.44.62c-.5-1.4-.86-2.85-1.06-4.31-.16-1.07-.22-2.57.35-3.82.62-1.38,1.85-2.13,3.18-2.32,1-.13,2.44.03,3.51,1.03,1.09,1.05,1.51,2.76,1.67,3.95.21,1.56.11,2.87-.48,3.75-.53.8-1.22.91-1.62.98l-.38-2.78Z" style="fill:#fff;"/><path id="uuid-ace69921-c399-42ae-8ee5-0be95f0ae3c7" d="m131.7,79.44l-4.96-.56c-.45-.05-.92-.06-1.3.17-.5.32-.79.94-.87,1.61-.2,1.74.96,2.12,1.8,2.21l4.87.56-.3,2.67-4.84-.54c-.92-.1-1.91-.38-2.45-1.07-.88-1.08-.87-2.86-.74-4.11.54-4.68,3-4.42,4.35-4.27l4.75.57-.32,2.77Z" style="fill:#fff;"/><path id="uuid-a894ef5a-89c8-4af0-b0cb-8929908d4139" d="m129.04,92.16l-1.28,3.12-9.26.47,1.18-2.9h1.83l1.51-3.7-1.3-1.27,1.04-2.55,6.28,6.83h0Zm-5.86.69l3.75.15.02-.04-2.75-2.61-1.03,2.51Z" style="fill:#fff;"/><path id="uuid-f618380c-0a08-4dcf-bcc5-9f371cff3d57" d="m124.21,102.06l-2.85,3.65c-1.11,1.41-1.6,1.88-2.37,2.04-.39.08-1,.1-1.72-.46-.72-.56-.76-1.16-.66-1.67.13-.71.45-1.23.61-1.46l-.04-.04c-1.24,1.5-1.86,1.14-3.02.52-.51-.28-1.31-.73-1.92-.9l1.85-2.37c.5.18,1.06.54,1.69.91.88.52,1.2.71,1.96-.27l.72-.92-2.58-2.02,1.71-2.18,6.61,5.17Zm-4.56-.02l-.64.81c-.37.48-.56.73-.65.95-.25.58.08,1,.3,1.16.82.64,1.48-.21,1.98-.84l.65-.81-1.63-1.27Z" style="fill:#fff;"/><path id="uuid-1ed40d50-e504-4ca2-8375-3ca31f129719" d="m115.87,111.8l-3.43,2.47c-.96.69-2.3,1.53-3.5,1.67-1.7.18-2.82-.72-3.55-1.72-1.09-1.51-1.32-3.04-.07-4.76.64-.86,1.62-1.58,2.19-1.98l3.44-2.48,4.92,6.81Zm-6.27-3.84l-.97.7c-1.48,1.08-2.06,2.31-.91,3.89,1.49,2.07,3.34.73,4.02.24l.9-.63-3.03-4.21Z" style="fill:#fff;"/><path id="uuid-887f05b8-88e5-49c8-8fbd-a5b25910a19d" d="m69.66,112.84c-.79.22-1.37.32-1.99.34l-.63,1.75c.48,0,1-.06,1.43-.18l-2.18,5.96,2.67.98,2.95-8.01-2.25-.83Z" style="fill:#fff;"/><path id="uuid-c2305269-3b67-411e-947f-4aedee96a084" d="m73.07,114.22l8.01,1.32-.28,1.7-4.9,6.07-3.25-.54,5.28-5.99-5.15-.85.29-1.72Z" style="fill:#fff;"/><path id="uuid-31602996-a555-49bb-9473-0e04d49e371c" d="m84.38,121.8c.03.47.57.82,1.39.78,1.57-.08,1.71-1.17,1.67-2.69-.48.5-1.11.92-2.35.99-1.38.05-2.08-.22-2.64-.65-.62-.48-1-1.15-1.03-1.92-.09-1.74,1.54-3.05,4.11-3.17,2.72-.13,3.59,1.05,4.01,1.76.44.8.64,1.67.68,2.56.05.98-.1,2.28-.95,3.27-.91,1.05-2.23,1.33-3.5,1.38-1.3.07-2.51-.09-3.4-.79-.59-.46-.66-1.05-.71-1.39l2.72-.13Zm2.87-3.83c-.02-.56-.4-1.33-1.64-1.27-1.1.05-1.57.66-1.53,1.4.02.64.45,1.34,1.62,1.28,1.11-.04,1.59-.64,1.56-1.41Z" style="fill:#fff;"/><path id="uuid-41713321-3b29-416e-93a0-4b30f68a7ad4" d="m91.55,115.68c.63-1.11,1.84-1.65,2.75-1.9,1.87-.52,2.88-.14,3.43.19.84.48,1.6,1.27,2.07,2.9.65,2.36.08,4.64-3.08,5.5-1.13.34-2.35.36-3.29-.14-1.37-.74-1.93-2.16-2.16-2.98-.21-.78-.46-2.27.28-3.58Zm4.73,5.15c.44-.12.83-.42.95-.78.26-.76-.12-2.13-.17-2.31-.12-.42-.43-1.36-.8-1.91-.18-.28-.55-.76-1.48-.5-.79.21-1.4.69-.71,3.18.48,1.75,1.04,2.64,2.2,2.31Z" style="fill:#fff;"/><path d="m105.04,57.89c-.9,2.58-2.17,7.21-2.17,12.79,0,.45.01.89.03,1.28.1,1.98.41,3.58.71,5.12.39,2.03.77,3.94.56,6.52-.35,4.37-1.51,7.46-3.54,9.45-.75.75-1.68,1.39-2.85,1.96-1.02.5-2.11.88-3.05,1.18-.61.2-1.23.38-1.85.57-.47.14-.94.28-1.4.42-1.32.41-2.45.82-3.45,1.27-1.43.65-2.62,1.39-3.62,2.26-.22.18-.43.38-.64.58-.2-.2-.41-.39-.62-.57-1.03-.89-2.23-1.64-3.65-2.28-1.02-.45-2.15-.87-3.44-1.26-.4-.12-.8-.24-1.2-.36-.69-.2-1.37-.41-2.05-.63-.87-.28-2-.66-3.06-1.18-1.17-.57-2.08-1.19-2.87-1.96-2.02-1.98-3.17-5.07-3.53-9.44-.2-2.57.17-4.49.56-6.52.3-1.55.61-3.15.71-5.09.03-.45.03-.89.03-1.32,0-5.59-1.27-10.21-2.17-12.79h42.54m2.28-1.56h-47.11s2.91,6.12,2.91,14.35c0,.41,0,.81-.03,1.2-.22,4.51-1.65,7.08-1.27,11.84.43,5.25,1.92,8.4,3.99,10.43.99.97,2.09,1.68,3.28,2.25,1.04.51,2.14.9,3.26,1.26,1.08.35,2.17.66,3.27.99,1.12.34,2.2.73,3.26,1.2,1.16.52,2.26,1.17,3.27,2.04.57.49,1.12,1.07,1.63,1.74v.02s0-.02,0-.02c.51-.67,1.05-1.25,1.64-1.74,1-.87,2.1-1.51,3.26-2.04,1.05-.47,2.15-.86,3.27-1.2,1.08-.34,2.18-.65,3.27-.99,1.11-.36,2.22-.75,3.26-1.26,1.18-.57,2.29-1.28,3.27-2.25,2.07-2.03,3.57-5.17,3.99-10.43.38-4.76-1.04-7.33-1.27-11.84-.02-.39-.03-.79-.03-1.2,0-8.23,2.89-14.35,2.89-14.35h0Z" style="fill:#fff;"/></svg>